<?xml version="1.0" standalone="no"?>
<!DOCTYPE svg PUBLIC "-//W3C//DTD SVG 20010904//EN"
 "http://www.w3.org/TR/2001/REC-SVG-20010904/DTD/svg10.dtd">
<svg version="1.0" xmlns="http://www.w3.org/2000/svg"
 width="152.000000pt" height="152.000000pt" viewBox="0 0 152.000000 152.000000"
 preserveAspectRatio="xMidYMid meet">
<metadata>
Created by potrace 1.14, written by Peter Selinger 2001-2017
</metadata>
<g transform="translate(0.000000,152.000000) scale(0.100000,-0.100000)"
fill="#000000" stroke="none">
<path d="M20 781 c0 -698 1 -739 18 -736 9 1 24 -1 32 -5 8 -4 26 -4 40 0 14
4 35 3 48 -1 12 -5 22 -5 22 0 0 5 15 6 33 2 17 -4 44 -4 59 0 16 4 30 3 34
-2 3 -5 10 -6 16 -3 6 4 33 6 62 5 112 -3 177 -2 185 4 5 3 13 1 16 -5 4 -7
11 -8 18 -2 7 5 21 6 32 2 11 -4 30 -4 43 1 14 5 22 5 22 -2 0 -6 6 -7 17 -1
9 5 29 6 44 2 15 -5 30 -6 33 -3 4 5 27 5 166 4 30 0 62 0 70 1 8 1 26 -2 39
-6 15 -6 21 -5 17 2 -4 7 3 8 24 2 16 -5 30 -5 30 0 0 7 29 7 38 0 6 -6 30 -5
54 1 15 4 30 4 33 0 2 -5 19 -7 37 -4 55 7 62 7 87 -1 14 -5 21 -4 18 1 -3 5
4 9 16 9 l22 -1 0 683 c0 375 4 682 8 682 5 0 5 6 0 13 -4 6 -8 23 -9 37 -3
66 71 60 -714 60 l-710 0 0 -739z"/>
</g>
</svg>
